<svg xmlns="http://www.w3.org/2000/svg" version="1.1" xmlns:xlink="http://www.w3.org/1999/xlink" xmlns:svgjs="http://svgjs.dev/svgjs" width="1000" height="1000" viewBox="0 0 1000 1000"><rect width="1000" height="1000" fill="#ffffff"></rect><g transform="matrix(0.7,0,0,0.7,149.57575757575756,367.00085799839394)"><svg viewBox="0 0 396 151" data-background-color="#282634" preserveAspectRatio="xMidYMid meet" height="381" width="1000" xmlns="http://www.w3.org/2000/svg" xmlns:xlink="http://www.w3.org/1999/xlink"><g id="tight-bounds" transform="matrix(1,0,0,1,0.2400000000000091,-0.19864851052679455)"><svg viewBox="0 0 395.52 151.3972970210536" height="151.3972970210536" width="395.52"><g><svg viewBox="0 0 395.52 151.3972970210536" height="151.3972970210536" width="395.52"><g><svg viewBox="0 0 395.52 151.3972970210536" height="151.3972970210536" width="395.52"><g><svg viewBox="0 0 395.52 151.3972970210536" height="151.3972970210536" width="395.52"><g><svg viewBox="0 0 395.52 102.88513413992635" height="102.88513413992635" width="395.52"><g transform="matrix(1,0,0,1,0,0)"><svg width="395.52" viewBox="1.5 -41.650001525878906 190.0800018310547 49.45000076293945" height="102.88513413992635" data-palette-color="#ff4057"><path d="M65.85-29.3L65.85-29.3Q68.95-29.3 68.95-30.8L68.95-30.8Q68.95-31.55 69.48-31.55 70-31.55 70-30.33 70-29.1 68.6-28.45 67.2-27.8 66.13-27.8 65.05-27.8 64.35-27.9L64.35-27.9Q57-28.85 51.75-31.1L51.75-31.1Q48.2-25.5 45.4-16.2L45.4-16.2Q44.35-12.85 42.43-8.95 40.5-5.05 38.27-2.53 36.05 0 33.15 1.6L33.15 1.6Q27.45 4.7 19.7 4.7L19.7 4.7Q13.4 4.7 7.9 1.6L7.9 1.6Q2.5-1.45 1.6-7.8L1.6-7.8Q1.5-8.65 1.5-10.33 1.5-12 2.48-15.1 3.45-18.2 6.15-19.8L6.15-19.8Q7.25-20.45 7.8-20.45L7.8-20.45Q8.7-20.45 8.6-19.6L8.6-19.6Q8.4-19.35 7.58-18.78 6.75-18.2 6-17.57 5.25-16.95 4.5-15.65L4.5-15.65Q3.2-13.45 3.2-10.7L3.2-10.7Q3.2-4.4 7.5-1L7.5-1Q9.8 0.9 12.65 1.9 15.5 2.9 18.35 2.9L18.35 2.9Q18.45 2.9 18.6 2.9L18.6 2.9Q28.95 2.65 35.6-4.6L35.6-4.6Q39.8-9.15 47.1-25.15L47.1-25.15Q49.6-30.65 50.3-31.6L50.3-31.6Q41.45-34.4 34.4-34.4 27.35-34.4 22.95-30.15L22.95-30.15Q19.4-26.75 19.4-23.05L19.4-23.05Q19.4-19 22.95-17.9L22.95-17.9Q24.2-17.55 25.23-17.55 26.25-17.55 27.58-17.93 28.9-18.3 30.13-19.48 31.35-20.65 31.98-21.8 32.6-22.95 32.5-23.55L32.5-23.55 32.5-23.65Q32.9-24 33.2-23.88 33.5-23.75 33.5-23.25L33.5-23.25Q33-19.35 29.55-17.4L29.55-17.4Q27.45-16.15 25.65-16.15 23.85-16.15 22.45-16.65L22.45-16.65Q18.35-18.1 17.25-22.2L17.25-22.2Q16.9-23.5 16.9-24.75L16.9-24.75Q16.9-27.75 18.75-30.6L18.75-30.6Q22.05-35.7 29.1-36.75L29.1-36.75Q30.7-37 32.15-37 33.6-37 35.52-36.85 37.45-36.7 40.63-35.85 43.8-35 47.13-33.88 50.45-32.75 51.1-32.55L51.1-32.55Q53.55-35.55 54.75-35.6L54.75-35.6Q55-35.7 55.43-35.7 55.85-35.7 56.1-35 56.35-34.3 55.75-34.1L55.75-34.1Q55.5-34.05 55.1-34.15L55.1-34.15Q54.8-34.35 53.88-33.52 52.95-32.7 52.5-32.15L52.5-32.15Q57.2-30.65 60.75-29.98 64.3-29.3 65.85-29.3ZM63.95-13.55Q63.05-12.65 61.4-9.47 59.75-6.3 59.42-4.73 59.1-3.15 59.1-2.18 59.1-1.2 59.85-1.2L59.85-1.2Q60.8-1.2 62.2-2.95L62.2-2.95Q64.25-5.5 66.25-9.6L66.25-9.6Q66.45-10.05 66.7-10.1L66.7-10.1Q67.1-10.25 67.1-9.8L67.1-9.8Q67.1-9.55 66.95-9.2L66.95-9.2Q62.35 0.1 59.2 0.1L59.2 0.1Q57.75 0.1 56.85-1.3L56.85-1.3Q56.4-2.05 56.4-3.3 56.4-4.55 56.9-6.35L56.9-6.35Q52.9 0.1 50 0.1L50 0.1Q49.2 0.1 48.55-0.4L48.55-0.4Q47.05-1.45 47.05-4L47.05-4Q47.05-8.9 51.3-13.95L51.3-13.95Q53.7-16.75 57.2-17.6L57.2-17.6Q58.15-17.85 59-17.85L59-17.85Q61.3-17.85 62.9-16.25L62.9-16.25Q63.4-15.7 63.2-15.2 63-14.7 62.35-14.8L62.35-14.8Q61.8-16.6 59.95-16.6L59.95-16.6Q57.8-16.6 54.65-13.2L54.65-13.2Q52.85-11.2 51.3-8.5L51.3-8.5Q49.35-5.25 49.35-3.3 49.35-1.35 50.6-1.35L50.6-1.35Q53.6-1.35 58.45-10.55L58.45-10.55Q59.4-12.4 60.05-13.08 60.7-13.75 61.7-13.75L61.7-13.75Q61.9-13.75 62.72-13.6 63.55-13.45 63.95-13.55L63.95-13.55ZM65-4L65-4Q65-8.15 69-17.9L69-17.9 66.4-17.9Q66.15-17.9 66.07-18.18 66-18.45 66.12-18.73 66.25-19 66.5-19L66.5-19 69.5-19Q71.3-22.95 72.85-25.6 74.4-28.25 75.7-29.18 77-30.1 77.57-30.1 78.15-30.1 78.4-30L78.4-30Q79.55-29.45 79.55-27.73 79.55-26 78.4-23.55 77.25-21.1 76.15-19L76.15-19 78.55-19Q78.8-19 78.87-18.73 78.95-18.45 78.82-18.18 78.7-17.9 78.45-17.9L78.45-17.9 75.55-17.9Q72.8-13.25 68.9-9.65L68.9-9.65 67.75-4.55Q67.6-3.9 67.6-3.28 67.6-2.65 67.95-2 68.3-1.35 69.05-1.35L69.05-1.35Q69.9-1.35 70.95-1.95L70.95-1.95Q73.35-3.75 76.25-9.5L76.25-9.5Q76.45-9.95 76.72-10.05 77-10.15 77.05-9.93 77.1-9.7 76.9-9.2L76.9-9.2Q75.25-5.75 74.3-4.3L74.3-4.3Q71.6 0.05 68.55 0.05L68.55 0.05Q67 0.05 66-1.1 65-2.25 65-4ZM72.55-19L75.05-19Q78.35-24.9 78.35-27.2L78.35-27.2Q78.35-28.2 78-28.2L78-28.2Q77.45-28.2 76.32-26.6 75.2-25 72.55-19L72.55-19ZM74.4-17.9L74.4-17.9 72.05-17.9Q71.45-16.5 69.35-11.25L69.35-11.25Q72.05-14.05 74.4-17.9ZM74.99-4L74.99-4Q74.99-8.15 78.99-17.9L78.99-17.9 76.39-17.9Q76.14-17.9 76.07-18.18 75.99-18.45 76.12-18.73 76.24-19 76.49-19L76.49-19 79.49-19Q81.29-22.95 82.84-25.6 84.39-28.25 85.69-29.18 86.99-30.1 87.57-30.1 88.14-30.1 88.39-30L88.39-30Q89.54-29.45 89.54-27.73 89.54-26 88.39-23.55 87.24-21.1 86.14-19L86.14-19 88.54-19Q88.79-19 88.87-18.73 88.94-18.45 88.82-18.18 88.69-17.9 88.44-17.9L88.44-17.9 85.54-17.9Q82.79-13.25 78.89-9.65L78.89-9.65 77.74-4.55Q77.59-3.9 77.59-3.28 77.59-2.65 77.94-2 78.29-1.35 79.04-1.35L79.04-1.35Q79.89-1.35 80.94-1.95L80.94-1.95Q83.34-3.75 86.24-9.5L86.24-9.5Q86.44-9.95 86.72-10.05 86.99-10.15 87.04-9.93 87.09-9.7 86.89-9.2L86.89-9.2Q85.24-5.75 84.29-4.3L84.29-4.3Q81.59 0.05 78.54 0.05L78.54 0.05Q76.99 0.05 75.99-1.1 74.99-2.25 74.99-4ZM82.54-19L85.04-19Q88.34-24.9 88.34-27.2L88.34-27.2Q88.34-28.2 87.99-28.2L87.99-28.2Q87.44-28.2 86.32-26.6 85.19-25 82.54-19L82.54-19ZM84.39-17.9L84.39-17.9 82.04-17.9Q81.44-16.5 79.34-11.25L79.34-11.25Q82.04-14.05 84.39-17.9ZM95.34-17.5L95.34-17.5Q98.99-17.5 98.99-12.9L98.99-12.9Q98.99-10.8 97.89-8.4L97.89-8.4Q96.49-5.15 93.69-2.5L93.69-2.5Q94.34-1.25 96.04-1.25L96.04-1.25Q97.39-1.25 98.59-2.6L98.59-2.6Q100.09-4.15 100.74-5.33 101.39-6.5 101.69-7.05 101.99-7.6 102.47-8.63 102.94-9.65 103.04-9.88 103.14-10.1 103.39-10.1L103.39-10.1Q103.89-10.15 103.89-9.75L103.89-9.75Q103.89-9.6 103.79-9.4L103.79-9.4 103.49-8.7Q103.19-8 103.04-7.7 102.89-7.4 102.52-6.63 102.14-5.85 101.87-5.4 101.59-4.95 101.12-4.2 100.64-3.45 100.27-3 99.89-2.55 99.34-2 98.79-1.45 98.29-1.15L98.29-1.15Q97.04-0.4 95.94-0.4L95.94-0.4Q93.89-0.4 92.74-1.7L92.74-1.7Q90.44 0 88.49 0L88.49 0Q84.84 0 84.84-4.6L84.84-4.6Q84.84-6.7 85.94-9.1L85.94-9.1Q87.44-12.6 90.17-15.05 92.89-17.5 95.34-17.5ZM95.89-15.95L95.89-15.95Q94.54-15.95 92.69-14.15 90.84-12.35 89.39-9.25L89.39-9.25Q87.64-5.65 87.64-3.35 87.64-1.05 89.39-1.05L89.39-1.05Q90.64-1.05 92.19-2.4L92.19-2.4Q91.39-3.55 91.39-4.85L91.39-4.85Q91.49-7 93.14-7L93.14-7Q93.79-7 94.22-6.55 94.64-6.1 94.64-5.73 94.64-5.35 94.54-4.95L94.54-4.95Q95.39-6.2 96.49-8.5L96.49-8.5Q97.74-11.05 97.74-13.5 97.74-15.95 95.89-15.95ZM112.09-17.5L112.09-17.5Q115.74-17.5 115.74-12.9L115.74-12.9Q115.74-10.8 114.64-8.4L114.64-8.4Q113.24-5.15 110.44-2.5L110.44-2.5Q111.09-1.25 112.79-1.25L112.79-1.25Q114.14-1.25 115.34-2.6L115.34-2.6Q116.84-4.15 117.49-5.33 118.14-6.5 118.44-7.05 118.74-7.6 119.21-8.63 119.69-9.65 119.79-9.88 119.89-10.1 120.14-10.1L120.14-10.1Q120.64-10.15 120.64-9.75L120.64-9.75Q120.64-9.6 120.54-9.4L120.54-9.4 120.24-8.7Q119.94-8 119.79-7.7 119.64-7.4 119.26-6.63 118.89-5.85 118.61-5.4 118.34-4.95 117.86-4.2 117.39-3.45 117.01-3 116.64-2.55 116.09-2 115.54-1.45 115.04-1.15L115.04-1.15Q113.79-0.4 112.69-0.4L112.69-0.4Q110.64-0.4 109.49-1.7L109.49-1.7Q107.19 0 105.24 0L105.24 0Q101.59 0 101.59-4.6L101.59-4.6Q101.59-6.7 102.69-9.1L102.69-9.1Q104.19-12.6 106.91-15.05 109.64-17.5 112.09-17.5ZM112.64-15.95L112.64-15.95Q111.29-15.95 109.44-14.15 107.59-12.35 106.14-9.25L106.14-9.25Q104.39-5.65 104.39-3.35 104.39-1.05 106.14-1.05L106.14-1.05Q107.39-1.05 108.94-2.4L108.94-2.4Q108.14-3.55 108.14-4.85L108.14-4.85Q108.24-7 109.89-7L109.89-7Q110.54-7 110.96-6.55 111.39-6.1 111.39-5.73 111.39-5.35 111.29-4.95L111.29-4.95Q112.14-6.2 113.24-8.5L113.24-8.5Q114.49-11.05 114.49-13.5 114.49-15.95 112.64-15.95ZM185.78-36.75L185.78-36.75 183.68-36.3Q180.28-30 177.53-20.2L177.53-20.2Q176.58-16.8 174.63-12.63 172.68-8.45 169.98-4.95L169.98-4.95Q160.03 7.8 144.53 7.8L144.53 7.8Q137.33 7.8 133.08 4.7L133.08 4.7Q130.18 2.55 129.23-0.9L129.23-0.9Q128.88-2.15 128.88-4.1 128.88-6.05 129.91-8.72 130.93-11.4 133.23-13.48 135.53-15.55 136.88-15.65L136.88-15.65Q137.38-15.65 137.48-15.5L137.48-15.5Q137.63-15.3 136.93-14.95L136.93-14.95Q135.38-14.3 133.48-12L133.48-12Q130.53-8.5 130.53-4.1L130.53-4.1Q130.53-0.75 132.68 1.65L132.68 1.65Q135.38 4.65 140.33 5.75L140.33 5.75Q142.53 6.25 143.68 6.25 144.83 6.25 146.06 6.23 147.28 6.2 149.28 5.7L149.28 5.7Q153.43 4.65 157.23 2.3 161.03-0.05 163.73-2.78 166.43-5.5 168.73-8.8L168.73-8.8Q172.63-14.45 174.63-19.9L174.63-19.9Q178.13-29.15 182.13-36.05L182.13-36.05Q174.18-34.4 169.48-32.4L169.48-32.4Q164.68-30.3 162.03-27.7L162.03-27.7Q158.73-24.35 157.78-20.15L157.78-20.15Q157.48-18.95 157.48-17.95L157.48-17.95Q157.48-15.85 158.63-14.55 159.78-13.25 161.11-13.25 162.43-13.25 163.96-13.85 165.48-14.45 166.63-15.85L166.63-15.85Q168.23-17.9 168.23-20.7L168.23-20.7Q168.23-22.1 167.83-22.45L167.83-22.45Q167.73-22.6 167.93-22.9L167.93-22.9Q168.43-23.65 168.88-22.9L168.88-22.9Q169.53-21.65 169.53-20.18 169.53-18.7 168.58-16.95L168.58-16.95Q166.88-13.75 163.68-12.55L163.68-12.55Q162.08-11.95 160.26-11.95 158.43-11.95 156.33-13.6 154.23-15.25 154.23-18.2L154.23-18.2Q154.23-19.1 154.43-20.15L154.43-20.15Q157.28-33 182.93-37.35L182.93-37.35Q183.38-38.3 184.56-39.7 185.73-41.1 186.56-41.38 187.38-41.65 187.93-41.65L187.93-41.65Q189.58-41.65 189.63-40.25L189.63-40.25Q189.63-38.75 188.43-37.95L188.43-37.95Q187.33-37.25 185.78-36.75ZM184.53-37.55L184.53-37.55Q187.93-38.25 187.78-39.45L187.78-39.45Q187.68-40.05 187.11-40.05 186.53-40.05 184.53-37.55ZM177.03-4L177.03-4Q177.03-8.15 181.03-17.9L181.03-17.9 178.43-17.9Q178.18-17.9 178.11-18.18 178.03-18.45 178.16-18.73 178.28-19 178.53-19L178.53-19 181.53-19Q183.33-22.95 184.88-25.6 186.43-28.25 187.73-29.18 189.03-30.1 189.61-30.1 190.18-30.1 190.43-30L190.43-30Q191.58-29.45 191.58-27.73 191.58-26 190.43-23.55 189.28-21.1 188.18-19L188.18-19 190.58-19Q190.83-19 190.91-18.73 190.98-18.45 190.86-18.18 190.73-17.9 190.48-17.9L190.48-17.9 187.58-17.9Q184.83-13.25 180.93-9.65L180.93-9.65 179.78-4.55Q179.63-3.9 179.63-3.28 179.63-2.65 179.98-2 180.33-1.35 181.08-1.35L181.08-1.35Q181.93-1.35 182.98-1.95L182.98-1.95Q185.38-3.75 188.28-9.5L188.28-9.5Q188.48-9.95 188.75-10.05 189.03-10.15 189.08-9.93 189.13-9.7 188.93-9.2L188.93-9.2Q187.28-5.75 186.33-4.3L186.33-4.3Q183.63 0.05 180.58 0.05L180.58 0.05Q179.03 0.05 178.03-1.1 177.03-2.25 177.03-4ZM184.58-19L187.08-19Q190.38-24.9 190.38-27.2L190.38-27.2Q190.38-28.2 190.03-28.2L190.03-28.2Q189.48-28.2 188.36-26.6 187.23-25 184.58-19L184.58-19ZM186.43-17.9L186.43-17.9 184.08-17.9Q183.48-16.5 181.38-11.25L181.38-11.25Q184.08-14.05 186.43-17.9Z" opacity="1" transform="matrix(1,0,0,1,0,0)" fill="#000000" class="undefined-text-0" data-fill-palette-color="primary" id="text-0"></path></svg></g></svg></g><g transform="matrix(1,0,0,1,163.310208,127.1738450671436)"><svg viewBox="0 0 232.209792 24.223451953909972" height="24.223451953909972" width="232.209792"><g transform="matrix(1,0,0,1,0,0)"><svg width="232.209792" viewBox="0.800000011920929 -33.70000076293945 325.4100036621094 33.95000076293945" height="24.223451953909972" data-palette-color="#dcdcdc"><path d="M28-29.35Q28-28.45 26.45-26.7L26.45-26.7Q24.6-24.6 16.8-13.8L16.8-13.8Q16.9-7.35 17.2-4.95L17.2-4.95Q17.35-3.45 17.35-2.8L17.35-2.8Q17.35-1.15 16.78-0.58 16.2 0 14.8 0L14.8 0Q13.75 0 12.83-0.63 11.9-1.25 11.9-2.15L11.9-2.15Q11.9-5.8 11.75-12.85L11.75-12.85Q11.75-13.15 11.35-13.85 10.95-14.55 10.85-14.75L10.85-14.75Q9.8-16.6 8.22-18.88 6.65-21.15 5.5-22.3L5.5-22.3Q3.3-24.5 2.05-26.28 0.8-28.05 0.8-28.8L0.8-28.8Q0.8-29.85 1.78-30.48 2.75-31.1 3.9-31.1L3.9-31.1Q4.55-31.1 5.28-30.75 6-30.4 6.45-29.75L6.45-29.75Q9.4-25.35 11.7-22.45L11.7-22.45 14.05-19.4Q16.2-21.6 17.82-23.78 19.45-25.95 21.4-28.95L21.4-28.95 22.25-30.25Q23.2-31.55 25.2-31.55L25.2-31.55Q26.15-31.55 27.08-31 28-30.45 28-29.35L28-29.35ZM50.9-16.05Q51.3-15.35 51.55-14.03 51.8-12.7 51.8-11.65L51.8-11.65Q51.8-9.7 50.95-6.1L50.95-6.1Q47.5 0.2 40.75 0.2L40.75 0.2Q38.25 0.2 35.65-1.45 33.05-3.1 32.05-5.25L32.05-5.25Q30.7-9.55 30.7-10.7L30.7-10.7Q30.7-12.7 31.57-14.95 32.45-17.2 33.8-18.85L33.8-18.85Q34.65-20 36.85-20.83 39.05-21.65 40.85-21.65L40.85-21.65Q44.35-21.65 46.8-20.33 49.25-19 50.9-16.05L50.9-16.05ZM46.55-8Q46.8-8.65 46.8-11.35L46.8-11.35Q46.8-12.8 46.27-14.2 45.75-15.6 44.75-16.6L44.75-16.6Q44.65-16.7 44.2-16.93 43.75-17.15 42.97-17.38 42.2-17.6 41.2-17.6L41.2-17.6Q38.4-17.6 37.1-15.35 35.8-13.1 35.8-10.25L35.8-10.25Q35.8-9.75 36.07-8.35 36.35-6.95 36.55-6.6L36.55-6.6Q36.7-6.25 37.32-5.63 37.95-5 38.87-4.53 39.8-4.05 40.8-4.05L40.8-4.05Q43.05-4.05 44.4-5.13 45.75-6.2 46.55-8L46.55-8ZM55.75-16.85Q55.34-16.85 55.02-17.18 54.7-17.5 54.7-17.95L54.7-17.95Q54.7-19.1 55.7-20.1L55.7-20.1Q56-20.25 56.9-20.6 57.8-20.95 58.5-20.95L58.5-20.95Q60.4-20.95 61.59-19.93 62.8-18.9 62.8-17L62.8-17Q62.8-16.45 62.59-14.65L62.59-14.65Q62.4-12.55 62.4-11.4L62.4-11.4Q62.4-7.9 63.34-5.75L63.34-5.75Q63.7-5.05 64.45-4.65 65.2-4.25 65.8-4.25L65.8-4.25Q67.25-4.25 68.15-4.75 69.05-5.25 70.09-6.35L70.09-6.35Q71.15-7.45 71.47-8.85 71.8-10.25 71.95-12.7L71.95-12.7Q72.05-14.3 72.15-15.05L72.15-15.05Q72.4-17.45 72.4-19.15L72.4-19.15Q72.4-20.25 73-20.98 73.59-21.7 74.65-21.7L74.65-21.7Q75.25-21.7 76.02-21.33 76.8-20.95 77.05-20.45L77.05-20.45Q77.34-19.95 77.34-18.8L77.34-18.8Q77.34-18.2 77.2-17.65L77.2-17.65Q76.84-16.4 76.84-14.65L76.84-14.65 76.9-12.05Q76.9-8.5 77.4-6.8L77.4-6.8Q77.65-6 78.09-5.18 78.55-4.35 78.95-3.8L78.95-3.8Q79.95-2.7 80.25-2.27 80.55-1.85 80.55-1.45L80.55-1.45Q80.55-0.85 79.97-0.33 79.4 0.2 78.75 0.2L78.75 0.2Q76.9 0.2 75.55-1.05 74.2-2.3 73.55-4.3L73.55-4.3Q71.84-2.35 70.4-1.15L70.4-1.15Q69.4-0.45 67.95-0.13 66.5 0.2 65.05 0.2L65.05 0.2Q63.09 0.2 61.09-1.4 59.09-3 58.4-5.1L58.4-5.1Q58.34-5.2 58.12-5.9 57.9-6.6 57.9-8L57.9-8Q57.9-9.85 58.09-12.65L58.09-12.65Q58.25-14.45 58.25-15.95L58.25-15.95Q58.25-16.4 57.92-16.7 57.59-17 57.2-17L57.2-17Q56.9-17 56.52-16.93 56.15-16.85 55.75-16.85L55.75-16.85ZM91.74-2Q91.74-1.15 91.09-0.5 90.44 0.15 89.49 0.15L89.49 0.15Q87.99 0.15 87.29-0.43 86.59-1 86.59-2.55L86.59-2.55Q86.59-4.4 86.49-7.4L86.49-7.4Q86.39-9.9 86.39-11.6L86.39-11.6Q86.39-12.4 86.49-13.7L86.49-13.7Q86.59-14.9 86.59-15.5L86.59-15.5Q86.44-16.45 85.84-17.07 85.24-17.7 84.29-17.7L84.29-17.7Q83.84-17.7 83.54-18.13 83.24-18.55 83.24-19L83.24-19Q83.24-20.15 84.17-20.75 85.09-21.35 86.39-21.35L86.39-21.35Q89.09-21.35 90.14-18.15L90.14-18.15Q91.44-19.65 93.12-20.58 94.79-21.5 96.34-21.5L96.34-21.5Q98.19-21.5 99.72-20.5 101.24-19.5 101.24-17.8L101.24-17.8Q101.24-16.85 100.42-15.85 99.59-14.85 98.74-14.85L98.74-14.85Q98.29-14.85 97.97-15.08 97.64-15.3 97.19-15.75L97.19-15.75Q96.69-16.25 96.34-16.48 95.99-16.7 95.54-16.7L95.54-16.7Q94.74-16.7 94.04-16.45 93.34-16.2 93.09-15.85L93.09-15.85Q92.29-14.6 91.92-13.6 91.54-12.6 91.54-11.45L91.54-11.45Q91.54-10.6 91.49-10.1L91.49-10.1 91.44-7.25Q91.44-6.6 91.49-5.8 91.54-5 91.59-4.6L91.59-4.6Q91.74-3.25 91.74-2L91.74-2ZM118.94-31.75Q119.89-31.75 120.66-31.25 121.44-30.75 121.59-29.5L121.59-29.5Q122.19-25.55 122.36-21.63 122.54-17.7 122.54-12.75L122.54-12.75Q122.54-10.65 122.19-5.1L122.19-5.1Q124.39-4.9 125.59-4.9L125.59-4.9Q126.44-4.9 129.44-5.15L129.44-5.15Q131.19-5.4 132.49-5.4L132.49-5.4Q133.69-5.4 134.69-5.18 135.69-4.95 136.74-4.45L136.74-4.45Q137.79-3.85 137.79-2.6L137.79-2.6Q137.79-1.6 137.16-0.8 136.54 0 135.69 0L135.69 0Q135.09 0 133.79-0.2L133.79-0.2Q131.44-0.55 129.29-0.55L129.29-0.55Q128.59-0.55 127.71-0.48 126.84-0.4 126.44-0.4L126.44-0.4Q125.24-0.25 124.04-0.25L124.04-0.25Q121.59-0.25 119.64-0.5L119.64-0.5Q118.64-0.6 117.64-1.28 116.64-1.95 116.64-3.25L116.64-3.25Q116.64-4 116.84-7.1L116.84-7.1Q117.19-12.25 117.19-14.95L117.19-14.95Q117.19-17.05 116.99-19.35 116.79-21.65 116.74-22.25L116.74-22.25Q116.29-26.5 116.29-29.25L116.29-29.25Q116.29-30.55 116.91-31.15 117.54-31.75 118.94-31.75L118.94-31.75ZM143.24-32.1Q144.99-31.95 146.29-31.18 147.59-30.4 147.59-28.85L147.59-28.85Q147.59-27.7 146.51-27.03 145.44-26.35 143.94-26.35L143.94-26.35Q142.49-26.35 141.94-27.1 141.39-27.85 141.39-28.65L141.39-28.65Q141.39-30.15 141.71-31.15 142.04-32.15 143.24-32.1L143.24-32.1ZM147.24-18.95L147.24-9.95 147.24-8.5Q147.24-6.55 147.36-4.83 147.49-3.1 147.69-1.35L147.69-1.35Q147.64-0.85 146.94-0.33 146.24 0.2 145.69 0.2L145.69 0.2Q144.74 0.2 143.76-0.18 142.79-0.55 142.59-1.1L142.59-1.1Q142.29-2.7 142.29-3.95L142.29-3.95Q142.29-8.05 142.04-13.15L142.04-13.15Q141.84-17.65 141.84-19.45L141.84-19.45Q141.84-20.35 142.74-21 143.64-21.65 144.64-21.65L144.64-21.65Q146.09-21.65 146.66-21 147.24-20.35 147.24-18.95L147.24-18.95ZM168.13-26.05Q167.43-26.05 166.78-26.4 166.13-26.75 165.88-27.45L165.88-27.45Q165.38-28.8 164.81-29.38 164.23-29.95 163.43-29.95L163.43-29.95Q162.93-29.95 162.51-29.2 162.08-28.45 161.88-26.85L161.88-26.85Q161.53-23.55 161.53-21.8L161.53-21.8Q162.28-21.65 163.63-21.65L163.63-21.65Q164.33-21.65 165.43-21.75L165.43-21.75 166.78-21.8Q167.68-21.8 168.18-21.45 168.68-21.1 168.68-20.3L168.68-20.3Q168.68-19.15 167.98-18.4 167.28-17.65 166.33-17.65L166.33-17.65Q162.73-17.65 161.48-17.3L161.48-17.3Q161.48-14.3 161.78-8.7L161.78-8.7Q161.78-7.85 161.88-6.25L161.88-6.25 162.08-2.4Q162.18-0.95 161.81-0.38 161.43 0.2 160.23 0.2L160.23 0.2Q158.03 0.2 157.38-2.45L157.38-2.45Q156.98-4.35 156.76-7.88 156.53-11.4 156.53-14.1L156.53-14.1Q156.53-15.5 156.68-17.35L156.68-17.35Q156.58-17.4 156.13-17.4L156.13-17.4Q155.68-17.4 155.48-17.35L155.48-17.35Q153.98-17.25 153.28-17.25L153.28-17.25Q152.83-17.25 152.38-17.9 151.93-18.55 151.93-19.4L151.93-19.4Q151.93-19.9 152.28-20.33 152.63-20.75 153.13-20.95L153.13-20.95Q153.88-21.35 155.28-21.35L155.28-21.35 156.78-21.35Q156.78-28.35 158.33-31.1L158.33-31.1Q159.83-33.7 163.28-33.7L163.28-33.7Q164.88-33.7 166.36-33.05 167.83-32.4 168.76-31.25 169.68-30.1 169.68-28.65L169.68-28.65Q169.68-27.1 169.28-26.58 168.88-26.05 168.13-26.05L168.13-26.05ZM172.03-10.6Q172.03-12.5 172.73-14.43 173.43-16.35 174.58-17.95L174.58-17.95Q175.73-19.55 178.23-20.58 180.73-21.6 182.68-21.6L182.68-21.6Q184.68-21.6 186.76-21.05 188.83-20.5 189.63-19.35L189.63-19.35Q191.48-16.75 191.48-14.25L191.48-14.25Q191.48-12.9 190.91-11.95 190.33-11 189.28-9.9L189.28-9.9Q188.43-9 186.61-8.7 184.78-8.4 182.98-8.4L182.98-8.4Q181.83-8.4 180.18-8.63 178.53-8.85 176.98-9.2L176.98-9.2Q177.08-8.2 177.48-7.25 177.88-6.3 178.43-5.8L178.43-5.8Q179.43-4.85 180.51-4.6 181.58-4.35 183.28-4.35L183.28-4.35Q185.08-4.35 186.63-4.95L186.63-4.95Q187.88-5.4 188.68-5.4L188.68-5.4Q189.63-5.4 190.13-4.83 190.63-4.25 190.63-3.35L190.63-3.35Q190.63-2.1 189.18-1.3 187.73-0.5 185.86-0.13 183.98 0.25 182.83 0.25L182.83 0.25Q180.48 0.25 178.28-0.6 176.08-1.45 174.63-3L174.63-3Q173.43-4.4 172.73-6.38 172.03-8.35 172.03-10.6L172.03-10.6ZM182.93-17.35Q181.83-17.35 180.73-16.93 179.63-16.5 178.93-15.75L178.93-15.75Q178.03-14.8 177.71-14.23 177.38-13.65 177.28-12.65L177.28-12.65Q178.53-12.25 182.48-12.25L182.48-12.25Q184.63-12.25 185.81-12.9 186.98-13.55 186.98-14.6L186.98-14.6Q186.98-15.65 185.68-16.5 184.38-17.35 182.93-17.35L182.93-17.35ZM216.53-27.6Q216.38-24.4 216.38-21.45L216.38-21.45Q216.38-18.4 216.78-12.5L216.78-12.5Q216.83-11.6 216.98-8.88 217.13-6.15 217.13-3.9L217.13-3.9Q217.63-3.95 218.2-4.05 218.78-4.15 219.08-4.15L219.08-4.15Q220.18-4.15 220.83-3.6 221.48-3.05 221.48-1.9L221.48-1.9Q221.48-1.15 220.88-0.75 220.28-0.35 218.8-0.18 217.33 0 214.53 0L214.53 0Q211.43 0 209.88-0.2 208.33-0.4 207.73-0.98 207.13-1.55 207.13-2.7L207.13-2.7Q207.13-3.55 207.68-3.85 208.23-4.15 209.23-4.15L209.23-4.15 210.28-4.1 211.93-4 211.68-9.9Q211.38-14.7 211.38-18.7L211.38-18.7Q211.38-20.85 211.53-24.6L211.53-24.6 211.63-27.35Q209.93-27.25 208.98-27.25L208.98-27.25Q207.88-27.25 207.5-27.65 207.13-28.05 207.13-29.3L207.13-29.3Q207.13-30.7 209.05-31.1 210.98-31.5 214.93-31.5L214.93-31.5Q217.98-31.5 219.5-31.3 221.03-31.1 221.03-30.4L221.03-30.4Q221.03-28.7 220.3-28.18 219.58-27.65 217.53-27.65L217.53-27.65 216.53-27.6ZM240.17-11.25Q240.57-11 241.75-10.33 242.92-9.65 243.32-8.75 243.72-7.85 243.72-6.25L243.72-6.25Q243.72-4.45 242.67-3.08 241.62-1.7 239.97-0.95L239.97-0.95Q238.77-0.4 237.05-0.1 235.32 0.2 234.32 0.2L234.32 0.2Q233.32 0.2 231.75-0.1 230.17-0.4 229.57-0.65L229.57-0.65Q228.02-1.55 226.9-2.85 225.77-4.15 225.77-5.5L225.77-5.5Q225.77-6.5 226.42-7.08 227.07-7.65 228.12-7.65L228.12-7.65Q228.62-7.65 229.17-7.28 229.72-6.9 229.92-6.5L229.92-6.5Q230.47-5.2 231.77-4.55 233.07-3.9 234.42-3.9L234.42-3.9Q236.17-3.9 237.67-4.48 239.17-5.05 239.17-6.05L239.17-6.05Q239.17-6.5 238.95-6.78 238.72-7.05 238.32-7.35L238.32-7.35Q237.62-7.85 236.22-8.18 234.82-8.5 234.42-8.6L234.42-8.6Q232.37-9.05 230.42-9.95L230.42-9.95Q228.47-10.9 227.32-12.2 226.17-13.5 226.17-15.55L226.17-15.55Q226.17-16.9 227.17-18.38 228.17-19.85 229.42-20.45L229.42-20.45Q230.32-20.8 232.45-21.2 234.57-21.6 235.32-21.6L235.32-21.6Q236.47-21.6 237.82-21.38 239.17-21.15 239.87-20.65L239.87-20.65Q241.22-19.85 242.07-18.98 242.92-18.1 242.92-17L242.92-17Q242.92-16.45 242.67-15.83 242.42-15.2 242.07-15.05L242.07-15.05Q241.32-14.7 240.32-14.7L240.32-14.7Q239.87-14.7 239.6-14.95 239.32-15.2 238.87-15.75L238.87-15.75Q238.32-16.6 237.82-16.75L237.82-16.75Q237.22-16.9 236.07-17.13 234.92-17.35 234.52-17.35L234.52-17.35Q233.37-17.35 232.15-16.7 230.92-16.05 230.92-15.2L230.92-15.2Q230.92-14.75 231.3-14.5 231.67-14.25 232.1-14.05 232.52-13.85 232.67-13.8L232.67-13.8Q233.72-13.3 235-12.95 236.27-12.6 236.57-12.5L236.57-12.5Q239.27-11.85 240.17-11.25L240.17-11.25ZM283.42-0.75Q282.77-1.6 282.32-2.63 281.87-3.65 281.37-5.1L281.37-5.1Q281.27-5.35 280.79-6.6 280.32-7.85 279.72-8.75L279.72-8.75Q276.57-8.3 274.57-8.3L274.57-8.3Q273.47-8.3 272.14-8.38 270.82-8.45 270.17-8.45L270.17-8.45Q267.67-8.65 266.17-8.65L266.17-8.65Q265.57-7.85 265.14-6.95 264.72-6.05 264.07-4.25L264.07-4.25Q263.17-1.65 262.52-0.55L262.52-0.55Q262.07 0.2 260.77 0.2L260.77 0.2Q259.67 0.2 258.74-0.28 257.82-0.75 257.82-1.6L257.82-1.6Q258.22-3.5 259.09-5.63 259.97-7.75 261.62-11.3L261.62-11.3 263.62-16.2Q265.27-20.4 266.64-23.4 268.02-26.4 270.27-30.5L270.27-30.5Q270.57-31.1 271.27-31.53 271.97-31.95 272.82-31.95L272.82-31.95Q273.77-31.95 274.19-31.83 274.62-31.7 274.87-31.43 275.12-31.15 275.62-30.3L275.62-30.3Q277.32-27.65 278.54-24.85 279.77-22.05 281.67-17.1L281.67-17.1 282.72-14.45Q284.12-10.85 285.14-8.43 286.17-6 287.42-4L287.42-4Q288.22-2.7 288.22-2.2L288.22-2.2Q288.22-1 287.49-0.38 286.77 0.25 285.62 0.25L285.62 0.25Q284.17 0.25 283.42-0.75L283.42-0.75ZM278.27-12.85Q277.47-14.55 275.97-18.75L275.97-18.75Q274.42-23.25 272.87-25.9L272.87-25.9Q271.92-23.5 270.07-19.7L270.07-19.7Q268.82-17.35 267.22-12.9L267.22-12.9Q270.42-12.5 274.12-12.5L274.12-12.5Q276.77-12.5 278.27-12.85L278.27-12.85ZM299.07-2Q299.07-1.15 298.42-0.5 297.77 0.15 296.82 0.15L296.82 0.15Q295.32 0.15 294.62-0.43 293.92-1 293.92-2.55L293.92-2.55Q293.92-4.4 293.82-7.4L293.82-7.4Q293.72-9.9 293.72-11.6L293.72-11.6Q293.72-12.4 293.82-13.7L293.82-13.7Q293.92-14.9 293.92-15.5L293.92-15.5Q293.77-16.45 293.17-17.07 292.57-17.7 291.62-17.7L291.62-17.7Q291.17-17.7 290.87-18.13 290.57-18.55 290.57-19L290.57-19Q290.57-20.15 291.49-20.75 292.42-21.35 293.72-21.35L293.72-21.35Q296.42-21.35 297.47-18.15L297.47-18.15Q298.77-19.65 300.44-20.58 302.12-21.5 303.67-21.5L303.67-21.5Q305.52-21.5 307.04-20.5 308.57-19.5 308.57-17.8L308.57-17.8Q308.57-16.85 307.74-15.85 306.92-14.85 306.07-14.85L306.07-14.85Q305.62-14.85 305.29-15.08 304.97-15.3 304.52-15.75L304.52-15.75Q304.02-16.25 303.67-16.48 303.32-16.7 302.87-16.7L302.87-16.7Q302.07-16.7 301.37-16.45 300.67-16.2 300.42-15.85L300.42-15.85Q299.62-14.6 299.24-13.6 298.87-12.6 298.87-11.45L298.87-11.45Q298.87-10.6 298.82-10.1L298.82-10.1 298.77-7.25Q298.77-6.6 298.82-5.8 298.87-5 298.92-4.6L298.92-4.6Q299.07-3.25 299.07-2L299.07-2ZM313.91-17.1L311.51-17.3Q310.81-17.4 310.39-17.9 309.96-18.4 309.96-19.1L309.96-19.1Q309.96-19.45 310.14-19.85 310.31-20.25 310.66-20.55L310.66-20.55Q311.31-21.2 314.16-21.2L314.16-21.2Q314.56-23.15 314.56-25.15L314.56-25.15Q314.56-25.9 314.51-26.45 314.46-27 314.46-27.3L314.46-27.3Q314.46-28.4 315.29-28.95 316.11-29.5 317.16-29.5L317.16-29.5Q318.46-29.5 318.94-28.85 319.41-28.2 319.41-26.45L319.41-26.45Q319.41-23.85 318.96-21.35L318.96-21.35Q319.76-21.35 321.16-21.45L321.16-21.45Q323.06-21.55 323.91-21.55L323.91-21.55Q324.76-21.55 325.39-21.13 326.01-20.7 326.01-19.95L326.01-19.95Q326.01-18 324.26-17.65L324.26-17.65Q322.41-17.2 318.51-17.1L318.51-17.1Q318.36-15.15 318.36-12.85L318.36-12.85Q318.36-9.25 318.81-6.95L318.81-6.95Q319.11-5.35 319.84-4.63 320.56-3.9 322.01-3.9L322.01-3.9Q322.86-3.9 323.76-4.35L323.76-4.35Q324.36-4.7 324.86-4.7L324.86-4.7Q325.56-4.7 325.89-4.25 326.21-3.8 326.21-3.05L326.21-3.05Q326.21-1.65 324.71-0.73 323.21 0.2 320.86 0.2L320.86 0.2Q319.41 0.2 317.94-0.5 316.46-1.2 315.46-2.25L315.46-2.25Q315.31-2.4 314.91-3.4 314.51-4.4 314.21-5.55L314.21-5.55Q313.71-7.9 313.71-12.15L313.71-12.15Q313.71-14 313.91-17.1L313.91-17.1Z" opacity="1" transform="matrix(1,0,0,1,0,0)" fill="#000000" class="undefined-text-1" data-fill-palette-color="secondary" id="text-1"></path></svg></g></svg></g></svg></g></svg></g></svg></g><defs></defs></svg><rect width="395.52" height="151.3972970210536" fill="none" stroke="none" visibility="hidden"></rect></g></svg></g></svg>